<svg width="732" height="996" viewBox="0 0 732 996" fill="none" xmlns="http://www.w3.org/2000/svg">
<g filter="url(#filter0_i_2_28)">
<path d="M548.814 42H186C109.785 42 48 103.785 48 180V534C48 610.215 109.785 672 186 672H548.814C625.029 672 686.814 610.215 686.814 534V180C686.814 103.785 625.029 42 548.814 42Z" fill="#E0663B"/>
</g>
<path d="M266.595 482.608C318.821 482.608 361.159 416.179 361.159 334.235C361.159 252.29 318.821 185.861 266.595 185.861C214.369 185.861 172.031 252.29 172.031 334.235C172.031 416.179 214.369 482.608 266.595 482.608Z" fill="white"/>
<path d="M266.584 489.815C238.774 489.815 212.867 473.197 193.637 443.023C175.048 413.858 164.813 375.22 164.813 334.234C164.813 293.249 175.048 254.61 193.637 225.445C212.867 195.271 238.774 178.654 266.584 178.654C294.394 178.654 320.301 195.271 339.531 225.445C358.121 254.61 368.356 293.249 368.356 334.234C368.356 375.22 358.121 413.858 339.531 443.023C320.301 473.197 294.394 489.815 266.584 489.815ZM266.584 193.069C243.871 193.069 222.283 207.317 205.792 233.189C188.661 260.071 179.222 295.953 179.222 334.228C179.222 372.504 188.656 408.392 205.792 435.268C222.283 461.14 243.871 475.388 266.584 475.388C289.297 475.388 310.885 461.14 327.376 435.268C344.507 408.386 353.946 372.504 353.946 334.228C353.946 295.953 344.513 260.071 327.376 233.189C310.885 207.317 289.297 193.069 266.584 193.069Z" fill="black"/>
<path d="M455.724 482.608C507.95 482.608 550.288 416.179 550.288 334.235C550.288 252.29 507.95 185.861 455.724 185.861C403.498 185.861 361.16 252.29 361.16 334.235C361.16 416.179 403.498 482.608 455.724 482.608Z" fill="white"/>
<path d="M455.713 489.815C427.903 489.815 401.996 473.197 382.766 443.023C364.176 413.858 353.941 375.22 353.941 334.235C353.941 293.249 364.176 254.611 382.766 225.446C401.996 195.272 427.903 178.654 455.713 178.654C483.523 178.654 509.43 195.272 528.66 225.446C547.25 254.611 557.485 293.249 557.485 334.235C557.485 375.22 547.25 413.858 528.66 443.023C509.43 473.197 483.523 489.815 455.713 489.815ZM455.713 193.069C433 193.069 411.412 207.317 394.921 233.189C377.79 260.071 368.351 295.954 368.351 334.229C368.351 372.504 377.784 408.392 394.921 435.268C411.412 461.14 433 475.388 455.713 475.388C478.426 475.388 500.014 461.14 516.505 435.268C533.636 408.386 543.075 372.504 543.075 334.229C543.075 295.954 533.642 260.071 516.505 233.189C500.014 207.317 478.426 193.069 455.713 193.069Z" fill="black"/>
<path d="M434.021 560.422C407.036 560.422 381.619 551.328 362.453 534.826C342.975 518.052 332.25 495.662 332.25 471.785C332.25 467.806 335.479 464.578 339.458 464.578C343.436 464.578 346.665 467.806 346.665 471.785C346.665 512.713 385.852 546.012 434.021 546.012C482.191 546.012 521.378 512.713 521.378 471.785C521.378 467.806 524.607 464.578 528.586 464.578C532.564 464.578 535.793 467.806 535.793 471.785C535.793 495.668 525.068 518.058 505.591 534.826C486.424 551.334 461.001 560.422 434.021 560.422Z" fill="black"/>
<path d="M216.375 288.953C216.375 345.888 248.78 392.04 288.757 392.04C323.826 392.04 353.054 356.521 359.708 309.365C352.789 245.177 319.669 195.064 278.164 187.09C243.222 194.407 216.375 237.157 216.375 288.953Z" fill="black"/>
<path d="M405.515 288.953C405.515 345.888 437.921 392.04 477.898 392.04C512.967 392.04 542.195 356.521 548.849 309.365C541.93 245.177 508.81 195.064 467.305 187.09C432.362 194.407 405.515 237.157 405.515 288.953Z" fill="black"/>
<path d="M508.03 487.492C506.756 487.492 505.459 487.151 504.288 486.442C500.886 484.378 499.808 479.932 501.872 476.524C502.835 474.938 511.709 460.985 526.562 460.085C536.434 459.485 545.827 464.773 554.511 475.809C556.973 478.934 556.431 483.467 553.306 485.929C550.181 488.391 545.648 487.849 543.187 484.724C539.357 479.863 533.528 474.137 527.491 474.472C521.223 474.823 515.763 481.495 514.183 484.032C512.828 486.263 510.464 487.492 508.03 487.492Z" fill="black"/>
<path d="M349.381 262.504C333.264 216.807 302.225 185.866 266.579 185.866C230.933 185.866 200.275 216.433 184.078 261.667L349.381 262.504Z" fill="#E0663B"/>
<path d="M359.579 269.763L173.86 268.823L177.29 259.24C185.761 235.582 198.175 215.631 213.184 201.55C229.145 186.575 247.608 178.664 266.578 178.664C304.127 178.664 338.452 209.87 356.172 260.11L359.579 269.768V269.763ZM194.617 254.512L338.851 255.238C322.584 216.628 295.495 193.068 266.578 193.068C237.661 193.068 210.918 216.346 194.617 254.506V254.512Z" fill="black"/>
<path d="M538.369 262.504C522.253 216.807 491.213 185.866 455.567 185.866C419.921 185.866 389.263 216.433 373.066 261.667L538.369 262.504Z" fill="#E0663B"/>
<path d="M548.568 269.763L362.848 268.823L366.278 259.24C374.749 235.582 387.163 215.631 402.172 201.55C418.133 186.575 436.596 178.664 455.566 178.664C474.537 178.664 493.213 186.668 509.237 201.815C524.31 216.064 536.736 236.222 545.16 260.11L548.568 269.768V269.763ZM383.606 254.512L527.839 255.238C511.573 216.628 484.483 193.068 455.566 193.068C426.649 193.068 399.907 216.346 383.606 254.506V254.512Z" fill="black"/>
<path d="M368.052 977.49C368.052 971.892 370.849 966.3 376.441 966.3C377.122 966.3 379.577 966.642 382.374 966.642C387.967 966.642 389.025 961.386 389.365 950.88C390.045 923.592 390.423 896.982 390.423 869.658C390.423 845.508 390.083 820.98 389.365 797.208C389.025 782.844 387.626 776.568 380.258 776.568C378.52 776.568 374.287 777.288 372.209 777.288C367.674 777.288 364.5 772.752 364.5 766.782C364.5 758.388 368.695 754.878 373.947 754.878C407.881 754.878 430.63 744.03 449.562 744.03C456.931 744.03 459.009 747.882 459.009 754.536C459.009 769.578 456.213 811.23 456.213 869.358C456.213 897.36 456.553 932.7 457.271 951.636C457.611 962.484 458.669 966.678 464.261 966.678C466 966.678 468.456 966.336 469.514 966.336C474.767 966.336 478.961 970.194 478.961 977.184C478.961 983.496 476.165 988.032 469.514 988.032C461.806 988.032 434.182 987.312 417.366 987.312C399.53 987.312 381.656 988.032 376.403 988.032C370.811 988.032 368.014 982.776 368.014 977.526L368.052 977.49Z" fill="#A8C8BB"/>
<path d="M469.555 989.886C466.456 989.886 460.07 989.772 452.474 989.622C441.327 989.43 427.421 989.166 417.407 989.166C405.844 989.166 394.469 989.466 386.155 989.658C381.734 989.772 378.295 989.844 376.444 989.844C369.68 989.844 366.166 983.61 366.166 977.448C366.166 970.95 369.718 964.374 376.444 964.374C376.708 964.374 377.2 964.41 377.842 964.488C378.938 964.602 380.6 964.752 382.376 964.752C385.589 964.752 387.1 962.748 387.478 950.844C388.196 923.25 388.536 896.718 388.536 869.694C388.536 845.358 388.196 821.016 387.478 797.28C387.1 782.502 385.551 778.458 380.261 778.458C379.467 778.458 378.182 778.608 376.784 778.764C375.121 778.95 373.421 779.142 372.212 779.142C366.656 779.142 362.613 773.922 362.613 766.746C362.613 758.088 366.845 752.946 373.95 752.946C393.184 752.946 408.602 749.472 422.206 746.412C432.409 744.102 441.251 742.098 449.527 742.098C459.692 742.098 460.864 749.166 460.864 754.5C460.864 759.828 460.561 767.538 460.108 778.5C459.276 799.362 458.067 830.844 458.067 869.316C458.067 896.112 458.407 931.908 459.125 951.522C459.503 963.504 460.977 964.752 464.227 964.752C465.171 964.752 466.305 964.638 467.287 964.56C468.157 964.488 468.95 964.41 469.479 964.41C476.243 964.41 480.815 969.552 480.815 977.148C480.815 984.744 476.584 989.886 469.479 989.886H469.555ZM417.407 985.386C427.459 985.386 441.365 985.65 452.55 985.842C460.108 985.992 466.456 986.106 469.555 986.106C474.581 986.106 477.112 983.082 477.112 977.148C477.112 971.706 474.127 968.19 469.555 968.19C469.139 968.19 468.459 968.268 467.741 968.34C466.645 968.454 465.36 968.568 464.302 968.568C456.556 968.568 455.762 961.878 455.422 951.672C454.704 932.022 454.364 896.19 454.364 869.358C454.364 830.808 455.611 799.248 456.442 778.386C456.858 767.874 457.198 759.564 457.198 754.536C457.198 748.11 455.308 745.92 449.64 745.92C441.78 745.92 433.127 747.882 423.151 750.114C409.358 753.21 393.713 756.768 374.063 756.768C369.188 756.768 366.505 760.32 366.505 766.782C366.505 771.768 368.962 775.398 372.325 775.398C373.383 775.398 374.97 775.212 376.481 775.02C378.031 774.834 379.505 774.678 380.374 774.678C390.048 774.678 391.03 784.014 391.37 797.166C392.051 820.902 392.428 845.316 392.428 869.694C392.428 896.76 392.089 923.328 391.37 950.958C391.106 959.196 390.766 968.568 382.49 968.568C380.563 968.568 378.787 968.418 377.615 968.304C377.124 968.268 376.746 968.226 376.557 968.226C372.098 968.226 370.058 973.068 370.058 977.526C370.058 981.684 372.098 986.142 376.557 986.142C378.409 986.142 381.772 986.064 386.155 985.956C394.469 985.728 405.881 985.464 417.482 985.464L417.407 985.386Z" fill="black"/>
<path d="M1.9245 976.77C1.9245 970.458 6.11904 965.58 11.3716 965.58C13.8279 965.58 18.3625 966.642 19.7607 966.642C28.5276 966.642 30.2659 960.708 30.9461 944.226C32.0042 923.214 32.6843 894.528 32.6843 865.122C32.6843 846.228 31.9664 827.328 30.9461 810.852C30.2281 799.662 29.5479 788.814 20.781 788.814C17.2666 788.814 13.7901 789.876 11.3338 789.876C4.68307 789.876 1.88672 784.962 1.88672 778.686C1.88672 772.41 6.08124 767.496 11.3338 767.496C29.5479 767.496 47.3841 768.216 67.6764 768.216C89.0268 768.216 130.67 766.098 149.942 766.098C196.838 766.098 225.179 787.452 225.179 836.094C225.179 905.754 194.722 919.398 152.738 927.822C105.125 937.272 102.329 938.334 102.329 952.314C102.329 962.82 105.465 966.678 115.63 966.678C121.223 966.678 136.64 963.882 145.37 963.882C152.02 963.882 155.535 969.474 155.535 976.842C155.535 981.756 152.02 988.032 145.37 988.032C132.408 988.032 95.3376 987.312 70.1328 987.312C49.8403 987.312 21.499 988.032 11.3338 988.032C4.68307 988.032 1.88672 983.118 1.88672 976.842L1.9245 976.77ZM129.688 789.156C105.881 789.156 102.744 802.458 102.744 902.58C102.744 912.744 106.598 914.826 115.328 914.826C142.989 914.826 155.573 888.936 155.573 838.518C155.573 802.8 150.32 789.156 129.688 789.156Z" fill="#A8C8BB"/>
<path d="M145.448 989.886C140.044 989.886 130.408 989.772 119.185 989.622C103.88 989.43 84.8352 989.166 70.173 989.166C58.3076 989.166 43.4567 989.394 31.5156 989.622C22.8998 989.772 15.5689 989.886 11.3743 989.886C4.27009 989.886 0.0377822 985.008 0.0377822 976.806C0.0377822 969.474 5.02586 963.732 11.3743 963.732C12.9236 963.732 15.0398 964.068 16.9292 964.374C18.0629 964.56 19.3099 964.752 19.7634 964.752C26.1874 964.752 28.3036 961.914 29.0594 944.154C30.1552 921.888 30.7976 893.094 30.7976 865.122C30.7976 847.626 30.193 828.918 29.0594 811.002C28.3036 798.756 27.3211 790.704 20.7837 790.704C19.0454 790.704 17.2693 791.01 15.5311 791.274C14.0195 791.538 12.5836 791.766 11.3365 791.766C4.23231 791.766 0 786.888 0 778.686C0 771.354 4.98808 765.612 11.3365 765.612C20.2168 765.612 28.8326 765.762 38.0152 765.948C47.5001 766.14 57.2873 766.326 67.7172 766.326C78.6378 766.326 94.9626 765.762 110.758 765.234C126.062 764.7 140.536 764.208 149.945 764.208C200.43 764.208 227.071 789.078 227.071 836.094C227.071 908.928 193.553 921.552 153.081 929.676C104.221 939.39 104.221 940.374 104.221 952.314C104.221 961.992 106.79 964.788 115.633 964.788C118.013 964.788 122.473 964.224 127.234 963.654C133.393 962.898 140.422 961.992 145.372 961.992C152.704 961.992 157.427 967.812 157.427 976.842C157.427 983.154 152.816 989.922 145.372 989.922L145.448 989.886ZM70.2108 985.386C84.9108 985.386 103.956 985.614 119.26 985.842C130.446 985.992 140.044 986.106 145.448 986.106C150.851 986.106 153.724 980.55 153.724 976.806C153.724 971.442 151.57 965.73 145.448 965.73C140.725 965.73 133.809 966.6 127.763 967.356C122.699 967.998 118.316 968.532 115.708 968.532C104.788 968.532 100.517 963.954 100.517 952.278C100.517 936.666 104.901 935.346 152.439 925.932C192.608 917.886 223.368 906.168 223.368 836.058C223.368 790.854 198.692 767.952 150.02 767.952C140.687 767.952 126.251 768.444 110.947 768.972C95.1138 769.5 78.7512 770.07 67.755 770.07C56.7583 770.07 47.5001 769.878 37.9774 769.692C28.9838 769.542 20.2168 769.35 11.3743 769.35C7.14204 769.35 3.81663 773.43 3.81663 778.65C3.81663 782.88 5.13923 787.944 11.3743 787.944C12.319 787.944 13.6039 787.722 14.9642 787.53C16.7403 787.23 18.7431 786.924 20.8214 786.924C31.3645 786.924 32.158 799.584 32.876 810.738C34.0096 828.726 34.6142 847.548 34.6142 865.122C34.6142 893.166 33.9719 922.002 32.876 944.34C32.2714 958.968 31.0244 968.532 19.8012 968.532C19.0832 968.532 18.0251 968.376 16.3624 968.076C14.6997 967.812 12.6592 967.47 11.4121 967.47C7.17978 967.47 3.85442 971.556 3.85442 976.77C3.85442 981 5.17702 986.064 11.4121 986.064C15.6067 986.064 22.9376 985.956 31.5156 985.8C43.4567 985.614 58.3076 985.35 70.2486 985.35L70.2108 985.386ZM115.368 916.716C106.186 916.716 100.895 914.406 100.895 902.58C100.895 801.288 104.41 787.266 129.728 787.266C153.232 787.266 157.502 804.54 157.502 838.518C157.502 891.126 143.71 916.716 115.368 916.716ZM129.728 791.046C108.793 791.046 104.674 799.962 104.674 902.58C104.674 911.424 107.357 912.936 115.368 912.936C141.178 912.936 153.724 888.594 153.724 838.518C153.724 802.158 148.131 791.046 129.728 791.046Z" fill="black"/>
<path d="M283.952 799.32C296.536 799.32 308.099 797.208 320.342 797.208C326.275 797.208 328.051 800.34 328.051 806.994C328.051 813.984 325.595 866.142 325.595 895.548C325.595 904.656 325.595 928.806 325.935 944.19C326.275 961.686 327.333 966.6 332.246 966.6C335.76 966.6 338.556 965.922 341.353 965.922C348.721 965.922 351.518 971.172 351.518 976.77C351.518 983.082 348.721 987.954 341.353 987.954C331.906 987.954 304.622 986.556 285.69 986.556C271.33 986.556 259.087 987.954 246.125 987.954C240.193 987.954 236.678 984.816 236.678 976.77C236.678 969.396 240.193 965.922 246.125 965.922C247.864 965.922 250.32 966.6 253.117 966.6C256.971 966.6 257.311 960.288 257.651 952.62C258.709 927.75 259.767 900.12 259.767 872.796C259.767 860.208 259.427 846.528 258.709 835.338C258.029 822.036 255.572 819.24 249.262 819.24C246.466 819.24 244.349 819.582 243.292 819.582C236.641 819.582 234.902 813.648 234.902 808.014C234.902 802.386 236.641 797.166 243.292 797.166C256.253 797.166 268.496 799.284 283.876 799.284L283.952 799.32ZM329.109 757.332C329.109 776.946 318.944 783.942 289.922 784.278C260.901 784.62 250.736 776.91 250.736 757.332C250.736 736.32 268.95 727.926 289.922 727.926C310.895 727.926 329.109 735.978 329.109 757.332Z" fill="#A8C8BB"/>
<path d="M341.353 989.886C337.423 989.886 330.356 989.658 322.232 989.352C310.895 988.974 296.762 988.488 285.69 988.488C278.397 988.488 271.595 988.866 264.982 989.202C258.558 989.544 252.474 989.886 246.125 989.886C240.949 989.886 234.789 987.618 234.789 976.806C234.789 968.718 238.908 964.068 246.125 964.068C246.995 964.068 247.977 964.218 249.111 964.374C250.32 964.56 251.718 964.752 253.154 964.752C255.271 964.752 255.573 957.684 255.837 952.542C256.858 928.464 257.915 900.462 257.915 872.796C257.915 859.716 257.538 846.114 256.858 835.452C256.139 821.772 253.645 821.13 249.3 821.13C247.637 821.13 246.239 821.244 245.143 821.358C244.387 821.43 243.783 821.472 243.329 821.472C236.792 821.472 233.051 816.558 233.051 808.014C233.051 796.938 239.513 795.276 243.329 795.276C249.602 795.276 255.61 795.768 261.997 796.26C268.874 796.788 275.978 797.358 283.914 797.358C290.187 797.358 296.309 796.83 302.204 796.296C308.061 795.768 314.145 795.24 320.305 795.24C328.769 795.24 329.903 801.138 329.903 806.916C329.903 809.262 329.638 816.294 329.298 826.044C328.58 845.85 327.484 875.742 327.484 895.47C327.484 904.578 327.484 928.692 327.824 944.076C328.165 961.764 329.411 964.638 332.246 964.638C333.984 964.638 335.571 964.446 337.082 964.26C338.556 964.068 339.955 963.918 341.353 963.918C350.233 963.918 353.407 970.494 353.407 976.656C353.407 984.972 349.024 989.73 341.353 989.73V989.886ZM285.69 984.708C296.8 984.708 310.97 985.2 322.345 985.572C330.47 985.842 337.46 986.106 341.353 986.106C346.832 986.106 349.628 982.968 349.628 976.806C349.628 974.124 348.835 967.848 341.353 967.848C340.106 967.848 338.858 967.998 337.536 968.154C335.987 968.34 334.211 968.532 332.246 968.532C325.255 968.532 324.386 961.5 324.046 944.268C323.705 928.842 323.705 904.656 323.705 895.584C323.705 875.778 324.801 845.85 325.557 826.008C325.897 816.672 326.162 809.262 326.162 807.03C326.162 800.304 324.272 799.134 320.342 799.134C314.334 799.134 308.628 799.626 302.544 800.154C296.536 800.682 290.338 801.21 283.914 801.21C275.789 801.21 268.648 800.646 261.694 800.076C255.384 799.584 249.451 799.098 243.329 799.098C240.533 799.098 236.83 800.04 236.83 808.05C236.83 814.476 239.021 817.728 243.329 817.728C243.67 817.728 244.16 817.692 244.803 817.614C245.974 817.5 247.486 817.386 249.3 817.386C258.104 817.386 259.994 823.398 260.636 835.266C261.317 845.958 261.694 859.644 261.694 872.832C261.694 900.576 260.599 928.62 259.578 952.734C259.201 960.858 258.86 968.532 253.154 968.532C251.454 968.532 249.904 968.304 248.582 968.112C247.675 967.962 246.844 967.848 246.163 967.848C241.062 967.848 238.606 970.8 238.606 976.806C238.606 985.008 242.422 986.106 246.163 986.106C252.436 986.106 258.445 985.764 264.831 985.422C271.444 985.086 278.321 984.708 285.728 984.708H285.69ZM287.995 786.168C271.633 786.168 261.581 783.486 255.573 777.552C250.925 772.98 248.771 766.554 248.771 757.296C248.771 737.718 264.113 726 289.847 726C315.581 726 330.923 737.412 330.923 757.296C330.923 777.174 319.775 785.79 289.847 786.132C289.204 786.132 288.562 786.132 287.957 786.132L287.995 786.168ZM289.885 729.78C278.662 729.78 252.587 732.462 252.587 757.296C252.587 765.456 254.401 771.012 258.256 774.87C263.621 780.198 273.711 782.58 289.885 782.388C317.81 782.052 327.22 775.74 327.22 757.332C327.22 732.498 301.108 729.816 289.922 729.816L289.885 729.78Z" fill="black"/>
<path d="M537.733 799.32C550.316 799.32 561.88 797.208 574.123 797.208C580.056 797.208 581.832 800.34 581.832 806.994C581.832 813.984 579.376 866.142 579.376 895.548C579.376 904.656 579.376 928.806 579.716 944.19C580.056 961.686 581.114 966.6 586.027 966.6C589.541 966.6 592.337 965.922 595.134 965.922C602.502 965.922 605.298 971.172 605.298 976.77C605.298 983.082 602.502 987.954 595.134 987.954C585.686 987.954 558.403 986.556 539.471 986.556C525.112 986.556 512.868 987.954 499.907 987.954C493.974 987.954 490.46 984.816 490.46 976.77C490.46 969.396 493.974 965.922 499.907 965.922C501.645 965.922 504.101 966.6 506.897 966.6C510.752 966.6 511.092 960.288 511.432 952.62C512.491 927.75 513.548 900.12 513.548 872.796C513.548 860.208 513.208 846.528 512.491 835.338C511.81 822.036 509.354 819.24 503.043 819.24C500.247 819.24 498.131 819.582 497.072 819.582C490.422 819.582 488.684 813.648 488.684 808.014C488.684 802.386 490.422 797.166 497.072 797.166C510.034 797.166 522.278 799.284 537.658 799.284L537.733 799.32ZM582.89 757.332C582.89 776.946 572.725 783.942 543.704 784.278C514.682 784.62 504.517 776.91 504.517 757.332C504.517 736.32 522.731 727.926 543.704 727.926C564.676 727.926 582.89 735.978 582.89 757.332Z" fill="#A8C8BB"/>
<path d="M595.134 989.886C591.204 989.886 584.137 989.658 576.013 989.352C564.676 988.974 550.543 988.488 539.471 988.488C532.178 988.488 525.376 988.866 518.764 989.202C512.339 989.544 506.255 989.886 499.907 989.886C494.73 989.886 488.57 987.618 488.57 976.806C488.57 968.718 492.689 964.068 499.907 964.068C500.776 964.068 501.758 964.218 502.892 964.374C504.101 964.56 505.499 964.752 506.936 964.752C509.051 964.752 509.354 957.684 509.618 952.542C510.639 928.464 511.697 900.462 511.697 872.796C511.697 859.716 511.319 846.114 510.639 835.452C509.921 821.772 507.427 821.13 503.081 821.13C501.418 821.13 500.02 821.244 498.925 821.358C498.169 821.43 497.564 821.472 497.111 821.472C490.573 821.472 486.832 816.558 486.832 808.014C486.832 796.938 493.294 795.276 497.111 795.276C503.383 795.276 509.392 795.768 515.778 796.26C522.656 796.788 529.76 797.358 537.695 797.358C543.968 797.358 550.09 796.83 555.985 796.296C561.842 795.768 567.926 795.24 574.085 795.24C582.55 795.24 583.684 801.138 583.684 806.916C583.684 809.262 583.42 816.294 583.079 826.044C582.361 845.85 581.266 875.742 581.266 895.47C581.266 904.578 581.266 928.692 581.606 944.076C581.945 961.764 583.193 964.638 586.027 964.638C587.765 964.638 589.352 964.446 590.864 964.26C592.337 964.068 593.736 963.918 595.134 963.918C604.014 963.918 607.188 970.494 607.188 976.656C607.188 984.972 602.802 989.73 595.134 989.73V989.886ZM539.471 984.708C550.581 984.708 564.752 985.2 576.126 985.572C584.251 985.842 591.242 986.106 595.134 986.106C600.612 986.106 603.408 982.968 603.408 976.806C603.408 974.124 602.616 967.848 595.134 967.848C593.887 967.848 592.64 967.998 591.317 968.154C589.768 968.34 587.992 968.532 586.027 968.532C579.036 968.532 578.167 961.5 577.827 944.268C577.487 928.842 577.487 904.656 577.487 895.584C577.487 875.778 578.582 845.85 579.338 826.008C579.679 816.672 579.943 809.262 579.943 807.03C579.943 800.304 578.053 799.134 574.123 799.134C568.115 799.134 562.409 799.626 556.325 800.154C550.317 800.682 544.12 801.21 537.695 801.21C529.571 801.21 522.429 800.646 515.476 800.076C509.165 799.584 503.232 799.098 497.111 799.098C494.314 799.098 490.611 800.04 490.611 808.05C490.611 814.476 492.803 817.728 497.111 817.728C497.45 817.728 497.942 817.692 498.584 817.614C499.756 817.5 501.267 817.386 503.081 817.386C511.886 817.386 513.775 823.398 514.418 835.266C515.098 845.958 515.476 859.644 515.476 872.832C515.476 900.576 514.38 928.62 513.359 952.734C512.981 960.858 512.642 968.532 506.936 968.532C505.235 968.532 503.686 968.304 502.363 968.112C501.456 967.962 500.625 967.848 499.945 967.848C494.843 967.848 492.387 970.8 492.387 976.806C492.387 985.008 496.204 986.106 499.945 986.106C506.218 986.106 512.226 985.764 518.612 985.422C525.225 985.086 532.103 984.708 539.509 984.708H539.471ZM541.777 786.168C525.414 786.168 515.362 783.486 509.354 777.552C504.706 772.98 502.552 766.554 502.552 757.296C502.552 737.718 517.894 726 543.628 726C569.362 726 584.704 737.412 584.704 757.296C584.704 777.174 573.557 785.79 543.628 786.132C542.986 786.132 542.344 786.132 541.739 786.132L541.777 786.168ZM543.666 729.78C532.443 729.78 506.369 732.462 506.369 757.296C506.369 765.456 508.183 771.012 512.037 774.87C517.403 780.198 527.417 782.58 543.666 782.388C571.592 782.052 581.001 775.74 581.001 757.332C581.001 732.498 554.889 729.816 543.704 729.816L543.666 729.78Z" fill="black"/>
<path d="M671.994 991.47C631.032 991.47 618.108 971.178 618.108 934.062C618.108 917.958 620.562 889.956 620.562 865.806C620.562 854.958 620.562 843.768 619.848 830.808C619.506 822.414 616.332 818.562 612.138 818.562C609 818.562 605.484 819.276 603.75 819.276C597.437 819.276 595.699 813.684 595.699 808.428C595.699 802.836 597.437 798.642 604.464 797.244C627.552 792.708 649.626 774.834 663.606 756.654C667.458 751.74 670.596 749.658 675.846 749.658C681.444 749.658 685.296 753.174 685.296 757.71C685.296 761.568 684.24 773.472 684.24 787.794C684.24 796.566 689.49 798.3 698.94 798.3C702.792 798.3 713.298 797.244 719.568 797.244C726.9 797.244 730.074 802.836 730.074 808.806C730.074 815.46 726.936 821.052 719.568 821.052C710.802 821.052 699.618 819.654 691.908 819.654C684.198 819.654 681.744 822.792 681.744 829.104C681.066 863.046 680.346 896.304 680.688 918.714C681.024 944.268 688.056 948.12 697.122 948.12C706.194 948.12 709.026 937.614 709.026 928.506C709.026 919.398 702.714 909.606 702.714 900.156C702.714 892.788 707.25 888.594 713.22 888.594C722.67 888.594 727.584 894.906 727.584 922.194C727.584 970.152 712.542 991.512 671.916 991.512L671.994 991.47Z" fill="#A8C8BB"/>
<path d="M671.994 993.36C632.886 993.36 616.218 975.636 616.218 934.062C616.218 926.766 616.71 916.902 617.274 906.468C617.916 893.622 618.672 879.072 618.672 865.806C618.672 854.994 618.672 843.804 617.994 830.916C617.844 827.742 617.052 820.452 612.174 820.452C610.476 820.452 608.658 820.674 607.038 820.866C605.712 821.016 604.578 821.166 603.786 821.166C597.551 821.166 593.848 816.408 593.848 808.428C593.848 803.706 594.906 797.208 604.128 795.39C627.894 790.704 649.662 771.696 662.13 755.478C665.874 750.678 669.498 747.732 675.888 747.732C682.272 747.732 687.222 751.926 687.222 757.674C687.222 758.994 687.108 761.298 686.922 764.286C686.616 769.878 686.166 778.344 686.166 787.758C686.166 794.37 689.148 796.374 698.976 796.374C700.602 796.374 703.626 796.188 706.836 795.96C711.144 795.654 716.016 795.318 719.61 795.318C728.148 795.318 732 802.08 732 808.77C732 817.5 727.242 822.906 719.61 822.906C715.038 822.906 709.818 822.528 704.796 822.15C700.074 821.808 695.61 821.508 691.986 821.508C684.918 821.508 683.706 823.848 683.706 829.068V831.294C682.95 864.972 682.308 896.796 682.65 918.678C682.992 944.112 690.018 946.23 697.2 946.23C705.888 946.23 707.214 935.118 707.214 928.506C707.214 924.498 705.78 920.112 704.268 915.468C702.642 910.44 700.938 905.262 700.938 900.156C700.938 892.11 705.93 886.704 713.334 886.704C725.16 886.704 729.582 896.304 729.582 922.194C729.582 972.762 712.92 993.396 672.03 993.396L671.994 993.36ZM612.138 816.672C614.856 816.672 621.204 818.028 621.738 830.73C622.452 843.696 622.452 854.958 622.452 865.806C622.452 879.144 621.696 893.772 621.054 906.66C620.526 917.052 620.034 926.88 620.034 934.062C620.034 973.482 635.112 989.58 672.03 989.58C708.954 989.58 725.808 970.686 725.808 922.158C725.808 892.866 719.91 890.448 713.334 890.448C708.12 890.448 704.718 894.222 704.718 900.12C704.718 904.62 706.308 909.534 707.856 914.256C709.404 918.978 710.994 923.892 710.994 928.464C710.994 942.108 705.966 949.974 697.2 949.974C686.466 949.974 679.212 944.646 678.87 918.714C678.534 896.76 679.176 864.936 679.89 831.222V829.026C679.932 821.13 683.52 817.728 691.986 817.728C695.766 817.728 700.296 818.07 705.096 818.406C710.046 818.748 715.188 819.126 719.646 819.126C727.428 819.126 728.262 811.872 728.262 808.77C728.262 806.502 727.656 799.098 719.646 799.098C716.172 799.098 711.372 799.434 707.1 799.698C703.698 799.926 700.752 800.118 698.976 800.118C690.966 800.118 682.386 799.17 682.386 787.722C682.386 778.23 682.842 769.692 683.142 764.058C683.292 761.148 683.406 758.922 683.406 757.632C683.406 754.008 680.31 751.476 675.846 751.476C671.388 751.476 668.784 753.06 665.076 757.746C652.194 774.492 629.598 794.142 604.806 799.056C598.798 800.268 597.589 803.67 597.589 808.392C597.589 812.472 598.647 817.35 603.75 817.35C604.428 817.35 605.412 817.236 606.546 817.086C608.172 816.894 610.212 816.63 612.138 816.63V816.672Z" fill="black"/>
<defs>
<filter id="filter0_i_2_28" x="48" y="42" width="638.814" height="630" filterUnits="userSpaceOnUse" color-interpolation-filters="sRGB">
<feFlood flood-opacity="0" result="BackgroundImageFix"/>
<feBlend mode="normal" in="SourceGraphic" in2="BackgroundImageFix" result="shape"/>
<feColorMatrix in="SourceAlpha" type="matrix" values="0 0 0 0 0 0 0 0 0 0 0 0 0 0 0 0 0 0 127 0" result="hardAlpha"/>
<feOffset/>
<feGaussianBlur stdDeviation="3.5"/>
<feComposite in2="hardAlpha" operator="arithmetic" k2="-1" k3="1"/>
<feColorMatrix type="matrix" values="0 0 0 0 0 0 0 0 0 0 0 0 0 0 0 0 0 0 0.25 0"/>
<feBlend mode="normal" in2="shape" result="effect1_innerShadow_2_28"/>
</filter>
</defs>
</svg>
